<?xml version="1.0" encoding="utf-8"?>
<!-- Generator: Adobe Illustrator 23.0.3, SVG Export Plug-In . SVG Version: 6.00 Build 0)  -->
<svg version="1.1" id="Layer_1" xmlns="http://www.w3.org/2000/svg" xmlns:xlink="http://www.w3.org/1999/xlink" x="0px" y="0px"
	 viewBox="0 0 1080 1080" style="enable-background:new 0 0 1080 1080;" xml:space="preserve">
<style type="text/css">
	.st0{fill:url(#SVGID_1_);}
	.st1{fill:url(#SVGID_2_);}
	.st2{fill:url(#SVGID_3_);}
	.st3{filter:url(#Adobe_OpacityMaskFilter);}
	.st4{filter:url(#Adobe_OpacityMaskFilter_1_);}
	.st5{mask:url(#SVGID_4_);fill:url(#SVGID_5_);}
	.st6{opacity:0.6;fill:url(#SVGID_6_);}
	.st7{fill:url(#SVGID_7_);}
	.st8{fill:url(#SVGID_8_);}
	.st9{fill:url(#SVGID_9_);}
	.st10{fill:url(#SVGID_10_);}
	.st11{fill:url(#SVGID_11_);}
	.st12{fill:url(#XMLID_8_);}
	.st13{fill:url(#SVGID_12_);}
	.st14{fill:url(#SVGID_13_);}
	.st15{fill:url(#SVGID_14_);}
	.st16{fill:url(#SVGID_15_);}
	.st17{fill:url(#SVGID_16_);}
	.st18{fill:url(#SVGID_17_);}
	.st19{fill:url(#SVGID_18_);}
	.st20{fill:url(#SVGID_19_);}
	.st21{fill:url(#SVGID_20_);}
	.st22{fill:url(#SVGID_21_);}
	.st23{fill:url(#SVGID_22_);}
	.st24{fill:url(#SVGID_23_);}
	.st25{fill:url(#SVGID_24_);}
	.st26{fill:url(#SVGID_25_);}
	.st27{fill:url(#SVGID_26_);}
	.st28{fill:url(#SVGID_27_);}
</style>
<linearGradient id="SVGID_1_" gradientUnits="userSpaceOnUse" x1="802.3236" y1="-6.5905" x2="859.04" y2="110.1787" gradientTransform="matrix(0 1 -1 0 528.8673 -397.286)">
	<stop  offset="0" style="stop-color:#F6883A"/>
	<stop  offset="0.5653" style="stop-color:#F37027"/>
	<stop  offset="0.9557" style="stop-color:#F68C42"/>
</linearGradient>
<path class="st0" d="M438.8,478.4c-19-10-34.9-31.6-21.8-41.7c1.4-0.9,2.8-1.7,4.3-2.5c0.4-0.2,0.9-0.4,1.3-0.6l55.2-23.3l-8.3-19.6
	l68.9,16.2l-36.1,60.8l-8.3-19.6L439.5,471c-1.7,1-2.1,2.5-2.2,3.7C437.3,475.7,437.5,477.2,438.8,478.4z"/>
<linearGradient id="SVGID_2_" gradientUnits="userSpaceOnUse" x1="967.2822" y1="287.3537" x2="856.1053" y2="165.1305" gradientTransform="matrix(-4.489700e-11 1 1 4.489700e-11 243.4394 -397.286)">
	<stop  offset="0" style="stop-color:#F6883A"/>
	<stop  offset="0.5653" style="stop-color:#F37027"/>
	<stop  offset="0.9557" style="stop-color:#F68C42"/>
</linearGradient>
<path class="st1" d="M513.9,587.4c11.3-7.4,18.5-19.5,19.3-33.2c1-15.4-6-29.7-18.8-38.4c-0.6-0.4-1.2-0.8-1.9-1.1l-12.4-6.5
	l-25.9-13.6l-41.6-21.8l-9,4.7c-6.4,3.3-10.3,9.9-10.3,17.1c0,7.2,4,13.8,10.3,17.1l69.6,36.5C511.1,557.5,526,577.8,513.9,587.4z"
	/>
<linearGradient id="SVGID_3_" gradientUnits="userSpaceOnUse" x1="400.5733" y1="497.2984" x2="528.1246" y2="497.2984" gradientTransform="matrix(-1 0 0 1 926.1534 0)">
	<stop  offset="0" style="stop-color:#F6883A"/>
	<stop  offset="0.5653" style="stop-color:#F37027"/>
	<stop  offset="0.9557" style="stop-color:#F68C42"/>
</linearGradient>
<path class="st2" d="M505,558.3l-44.2-23.2l-27.6-14.5l-13.2-6.9c-0.7-0.4-1.4-0.8-2-1.2c-12.7-8.6-20-22.6-20-37.7c0-1,0-2,0.1-3.1
	c1-14.6,8.6-27.6,20.7-35.4c-13.1,10.2,2.8,31.8,21.8,41.7l74,38.8c6.8,3.6,11,10.6,11,18.2c0,7.6-4.2,14.6-11,18.2L505,558.3z"/>
<defs>
	<filter id="Adobe_OpacityMaskFilter" filterUnits="userSpaceOnUse" x="412.2" y="435.9" width="26.6" height="42.4">
		<feFlood  style="flood-color:white;flood-opacity:1" result="back"/>
		<feBlend  in="SourceGraphic" in2="back" mode="normal"/>
	</filter>
</defs>
<mask maskUnits="userSpaceOnUse" x="412.2" y="435.9" width="26.6" height="42.4" id="SVGID_4_">
	<g class="st3">
		<defs>
			<filter id="Adobe_OpacityMaskFilter_1_" filterUnits="userSpaceOnUse" x="412.2" y="435.9" width="26.6" height="42.4">
				<feFlood  style="flood-color:white;flood-opacity:1" result="back"/>
				<feBlend  in="SourceGraphic" in2="back" mode="normal"/>
			</filter>
		</defs>
		<mask maskUnits="userSpaceOnUse" x="412.2" y="435.9" width="26.6" height="42.4" id="SVGID_4_">
			<g class="st4">
			</g>
		</mask>
		
			<linearGradient id="SVGID_5_" gradientUnits="userSpaceOnUse" x1="913.2642" y1="119.2802" x2="842.4473" y2="98.6411" gradientTransform="matrix(0 1 -1 0 528.8673 -397.286)">
			<stop  offset="0" style="stop-color:#FFFFFF"/>
			<stop  offset="8.486126e-02" style="stop-color:#F6F6F6"/>
			<stop  offset="0.2252" style="stop-color:#DDDDDD"/>
			<stop  offset="0.4037" style="stop-color:#B4B4B4"/>
			<stop  offset="0.6134" style="stop-color:#7B7B7B"/>
			<stop  offset="0.8464" style="stop-color:#333333"/>
			<stop  offset="1" style="stop-color:#000000"/>
		</linearGradient>
		<path class="st5" d="M437.3,474.6c0.1-0.9,0.4-2.2,1.5-3.1c-15-9.5-26.5-25.5-20.7-35.6c-0.4,0.2-0.7,0.4-1.1,0.7
			c-13.1,10.2,2.8,31.8,21.8,41.7C437.5,477.2,437.3,475.7,437.3,474.6z"/>
	</g>
</mask>
<linearGradient id="SVGID_6_" gradientUnits="userSpaceOnUse" x1="913.2642" y1="119.2802" x2="842.4473" y2="98.6411" gradientTransform="matrix(0 1 -1 0 528.8673 -397.286)">
	<stop  offset="0" style="stop-color:#231F20"/>
	<stop  offset="1" style="stop-color:#231F20"/>
</linearGradient>
<path class="st6" d="M437.3,474.6c0.1-0.9,0.4-2.2,1.5-3.1c-15-9.5-26.5-25.5-20.7-35.6c-0.4,0.2-0.7,0.4-1.1,0.7
	c-13.1,10.2,2.8,31.8,21.8,41.7C437.5,477.2,437.3,475.7,437.3,474.6z"/>
<linearGradient id="SVGID_7_" gradientUnits="userSpaceOnUse" x1="403.2715" y1="588.0314" x2="524.3915" y2="588.0314" gradientTransform="matrix(-1 0 0 1 926.1534 0)">
	<stop  offset="0" style="stop-color:#F6883A"/>
	<stop  offset="0.5653" style="stop-color:#F37027"/>
	<stop  offset="0.9557" style="stop-color:#F68C42"/>
</linearGradient>
<path class="st7" d="M466.5,629.3l-7.8-18.4l51.9-21.9c0.4-0.2,0.8-0.4,1.2-0.6c1.4-0.7,2.8-1.5,4.1-2.4c2.5-1.5,0,0,0,0
	c2.2-1.5,4.7-3.5,5.7-5.4c5.9-11.5-11.4-26-26.3-33.8c1.2,1.1,1.4,2.5,1.4,3.5c-0.1,1.1-0.5,2.5-2,3.4l-51.2,21.6l-7.8-18.4
	l-34,57.2L466.5,629.3z"/>
<linearGradient id="SVGID_8_" gradientUnits="userSpaceOnUse" x1="71.1192" y1="507.2384" x2="229.2114" y2="507.2384">
	<stop  offset="0" style="stop-color:#0094D7"/>
	<stop  offset="0.2989" style="stop-color:#0098DD"/>
	<stop  offset="1" style="stop-color:#00A5E0"/>
</linearGradient>
<path class="st8" d="M229.2,408.4v59.3c0,10.9-2.1,21.1-6.2,30.8c-4.1,9.6-9.7,18-16.9,25.2c-7.2,7.2-15.6,12.8-25.2,16.9
	c-9.6,4.1-19.9,6.2-30.8,6.2c-10.9,0-21.1-2-30.8-6.2c-9.6-4.1-18-9.7-25.2-16.9c-7.2-7.2-12.8-15.6-16.9-25.2
	c-4.1-9.6-6.2-19.9-6.2-30.8v-59.3h2c5.2,0,10,1,14.6,2.9c4.6,1.9,8.5,4.6,11.9,8c3.3,3.4,6,7.4,8,12c2,4.6,3,9.5,3,14.6v21.8
	c0,5.5,1,10.7,3.2,15.5c2.1,4.8,4.9,8.9,8.4,12.5c3.5,3.5,7.7,6.4,12.5,8.4c4.8,2.1,9.9,3.2,15.5,3.2c5.3,0,10.5-1,15.3-3.2
	c4.9-2.1,9.1-4.9,12.6-8.4c3.5-3.5,6.3-7.7,8.4-12.5c2.1-4.8,3.2-9.9,3.2-15.5v-21.8c0-5.2,1-10,3-14.6c2-4.6,4.7-8.6,8.2-12
	c3.4-3.4,7.4-6.1,12-8c4.6-1.9,9.5-2.9,14.6-2.9H229.2z M169.9,548.5v28.1c0,4-0.8,7.8-2.3,11.5c-1.5,3.6-3.6,6.8-6.3,9.5
	c-2.7,2.7-5.8,4.8-9.5,6.3c-3.6,1.5-7.4,2.3-11.5,2.3h-10v-57.6C143.6,551.7,156.8,551.7,169.9,548.5z"/>
<linearGradient id="SVGID_9_" gradientUnits="userSpaceOnUse" x1="240.3793" y1="507.0951" x2="378.9963" y2="507.0951">
	<stop  offset="0" style="stop-color:#0094D7"/>
	<stop  offset="0.2989" style="stop-color:#0098DD"/>
	<stop  offset="1" style="stop-color:#00A5E0"/>
</linearGradient>
<path class="st9" d="M379,408.1v2c0,5.2-1,10-3,14.6c-2,4.6-4.7,8.6-8.2,12c-3.4,3.4-7.4,6.1-12,8c-4.6,1.9-9.5,2.9-14.6,2.9h-61.3
	v37.8h-2c-8,0-15.4,2.1-22.2,6.4c-6.8,4.3-11.9,10.1-15.3,17.3v-63.6c0-5.2,1-10,3-14.6c2-4.6,4.7-8.5,8-11.9c3.3-3.3,7.3-6,11.9-8
	c4.6-2,9.5-3,14.6-3h2H379z M379,566.5v2c0,5.2-1,10-3,14.6c-2,4.6-4.7,8.5-8.2,11.9c-3.4,3.3-7.4,6-12,8c-4.6,2-9.5,3-14.6,3h-71
	c-4,0-7.8-0.8-11.5-2.3c-3.6-1.5-6.8-3.7-9.6-6.4c-2.8-2.8-4.9-6-6.4-9.6c-1.5-3.6-2.3-7.4-2.3-11.5V527c0-5.2,1-10,3-14.6
	c2-4.6,4.7-8.5,8-11.9c3.3-3.3,7.3-6,11.9-8c4.6-2,9.5-3,14.6-3h2h79.3v2c0,5.2-1,10-3,14.6c-2,4.6-4.7,8.5-8.2,11.9
	c-3.4,3.3-7.4,6-12,8c-4.6,2-9.5,3-14.6,3h-41.5v37.5H379z"/>
<linearGradient id="SVGID_10_" gradientUnits="userSpaceOnUse" x1="560.2807" y1="507.0951" x2="837.2283" y2="507.0951">
	<stop  offset="0" style="stop-color:#0094D7"/>
	<stop  offset="0.2989" style="stop-color:#0098DD"/>
	<stop  offset="1" style="stop-color:#00A5E0"/>
</linearGradient>
<path class="st10" d="M676.3,541.3c2.9,15.3,9.5,28.9,19.8,41c-7.4,7.6-16,13.5-25.8,17.6c-9.7,4.1-20,6.2-30.6,6.2
	c-10.9,0-21.1-2-30.8-6.2c-9.6-4.1-18-9.7-25.2-16.9c-7.2-7.2-12.8-15.6-17-25.2c-4.2-9.6-6.3-19.9-6.3-30.8V408.1h2
	c5.1,0,9.9,1,14.5,3c4.5,2,8.5,4.7,11.9,8.2c3.4,3.4,6.1,7.4,8.1,12c2,4.6,3,9.5,3,14.6V527c0,5.5,1,10.7,3,15.5
	c2,4.8,4.8,8.9,8.5,12.5c3.6,3.5,7.9,6.3,12.7,8.4c4.8,2.1,10,3.2,15.5,3.2c8.2,0,15.7-2.3,22.4-6.9
	C668.6,555.1,673.4,549,676.3,541.3z M679.1,445.9c0-5.2,1-10,3-14.6c2-4.6,4.7-8.6,8-12c3.3-3.4,7.3-6.2,11.9-8.2
	c4.6-2,9.5-3,14.6-3h2V527c0,5.5,1,10.7,3.2,15.5c2.1,4.8,4.9,8.9,8.4,12.5c3.5,3.5,7.7,6.3,12.5,8.4c4.8,2.1,9.9,3.2,15.5,3.2
	c5.3,0,10.5-1,15.3-3.2c4.9-2.1,9.1-4.9,12.6-8.4c3.5-3.5,6.3-7.7,8.4-12.5c2.1-4.8,3.2-9.9,3.2-15.5v-81.1c0-5.2,1-10,3-14.6
	c2-4.6,4.7-8.6,8-12c3.3-3.4,7.3-6.2,11.9-8.2c4.6-2,9.5-3,14.6-3h2V527c0,10.9-2.1,21.1-6.2,30.8c-4.1,9.6-9.7,18-16.9,25.2
	c-7.2,7.2-15.6,12.8-25.2,16.9c-9.6,4.1-19.9,6.2-30.8,6.2c-10.9,0-21.1-2-30.8-6.2c-9.6-4.1-18-9.7-25.2-16.9
	c-7.2-7.2-12.8-15.6-16.9-25.2c-4.1-9.6-6.2-19.9-6.2-30.8V445.9z"/>
<linearGradient id="SVGID_11_" gradientUnits="userSpaceOnUse" x1="850.4008" y1="507.0951" x2="1008.4927" y2="507.0951">
	<stop  offset="0" style="stop-color:#0094D7"/>
	<stop  offset="0.2989" style="stop-color:#0098DD"/>
	<stop  offset="1" style="stop-color:#00A5E0"/>
</linearGradient>
<path class="st11" d="M1008.5,487.5V606h-1.7c-5.2,0-10-1-14.6-3c-4.6-2-8.6-4.7-12-8c-3.4-3.3-6.2-7.3-8.2-11.9
	c-2-4.6-3-9.5-3-14.6v-18.3h-81.1c-5.2,0-10-1-14.6-3c-4.6-2-8.5-4.7-11.9-8c-3.3-3.3-6-7.3-8-11.9c-2-4.6-3-9.5-3-14.6v-25.2
	c0-10.9,2-21.1,6.2-30.8c4.1-9.6,9.7-18,16.9-25.2c7.2-7.2,15.6-12.8,25.2-17c9.6-4.2,19.9-6.3,30.8-6.3c10.9,0,21.1,2.1,30.8,6.3
	c9.6,4.2,18,9.9,25.2,17c7.2,7.2,12.8,15.6,16.9,25.2C1006.4,466.3,1008.5,476.6,1008.5,487.5z M889.9,568.5c0,5.2-1,10-3,14.6
	c-2,4.6-4.7,8.5-8,11.9c-3.3,3.3-7.3,6-11.9,8c-4.6,2-9.5,3-14.6,3h-2v-75.9c3.4,7.3,8.5,13.1,15.3,17.5c6.8,4.4,14.2,6.6,22.2,6.6
	h2V568.5z M969,510.7v-23.3c0-5.6-1.1-10.7-3.2-15.5c-2.1-4.8-4.9-9-8.4-12.7c-3.5-3.6-7.7-6.5-12.6-8.5c-4.9-2-10-3-15.3-3
	c-5.5,0-10.7,1-15.5,3c-4.8,2-8.9,4.8-12.5,8.5c-3.5,3.6-6.3,7.9-8.4,12.7c-2.1,4.8-3.2,10-3.2,15.5v23.3H969z"/>
<g id="XMLID_1_">
	<g>
		<linearGradient id="XMLID_8_" gradientUnits="userSpaceOnUse" x1="215.0305" y1="511.8863" x2="37.5305" y2="318.1363">
			<stop  offset="0" style="stop-color:#F6883A"/>
			<stop  offset="0.5653" style="stop-color:#F37027"/>
			<stop  offset="0.9557" style="stop-color:#F68C42"/>
		</linearGradient>
		<path id="XMLID_43_" class="st12" d="M131.7,440.8L119,430.6l18.4-12l12.9,10.7L131.7,440.8l18.5,11.4L137.3,463L119,451
			L131.7,440.8z M150.2,452.2l12.9,10.7l18.4-12l-12.7-10.2L150.2,452.2z M181.5,430.6l-18.4-12l-12.9,10.7l18.5,11.4L181.5,430.6z
			 M150.2,454.5l-12.9,10.7l-5.5-3.6v4l18.4,11l18.4-11v-4l-5.5,3.6L150.2,454.5z"/>
	</g>
</g>
<g>
	<linearGradient id="SVGID_12_" gradientUnits="userSpaceOnUse" x1="676.8926" y1="612.5544" x2="1057.1561" y2="681.9676">
		<stop  offset="0" style="stop-color:#F6883A"/>
		<stop  offset="0.5653" style="stop-color:#F37027"/>
		<stop  offset="0.9557" style="stop-color:#F68C42"/>
	</linearGradient>
	<path class="st13" d="M756.4,618.9h2.4v14.8h9.1v2.1h-11.5V618.9z"/>
	<linearGradient id="SVGID_13_" gradientUnits="userSpaceOnUse" x1="677.3967" y1="609.7928" x2="1057.6603" y2="679.206">
		<stop  offset="0" style="stop-color:#F6883A"/>
		<stop  offset="0.5653" style="stop-color:#F37027"/>
		<stop  offset="0.9557" style="stop-color:#F68C42"/>
	</linearGradient>
	<path class="st14" d="M781.5,631.5h-9l-1.9,4.2h-2.5l7.6-16.9h2.4l7.7,16.9h-2.5L781.5,631.5z M780.7,629.6l-3.6-8.3l-3.6,8.3
		H780.7z"/>
	<linearGradient id="SVGID_14_" gradientUnits="userSpaceOnUse" x1="678.0505" y1="606.2115" x2="1058.314" y2="675.6247">
		<stop  offset="0" style="stop-color:#F6883A"/>
		<stop  offset="0.5653" style="stop-color:#F37027"/>
		<stop  offset="0.9557" style="stop-color:#F68C42"/>
	</linearGradient>
	<path class="st15" d="M789.7,635.3c-1.2-0.4-2.1-0.9-2.8-1.5l0.9-1.9c0.6,0.6,1.5,1,2.5,1.4c1,0.4,2,0.5,3.1,0.5
		c1.4,0,2.4-0.2,3.1-0.7c0.7-0.5,1-1.1,1-1.9c0-0.6-0.2-1-0.6-1.4c-0.4-0.4-0.8-0.6-1.4-0.8c-0.6-0.2-1.3-0.4-2.3-0.7
		c-1.3-0.3-2.3-0.6-3.1-0.9c-0.8-0.3-1.4-0.8-2-1.4c-0.6-0.6-0.8-1.5-0.8-2.6c0-0.9,0.2-1.7,0.7-2.4c0.5-0.7,1.2-1.3,2.2-1.7
		c1-0.4,2.2-0.7,3.6-0.7c1,0,2,0.1,2.9,0.4c1,0.3,1.8,0.6,2.5,1.1l-0.8,1.9c-0.7-0.4-1.5-0.8-2.3-1c-0.8-0.2-1.6-0.3-2.4-0.3
		c-1.4,0-2.4,0.2-3.1,0.7c-0.7,0.5-1,1.1-1,1.9c0,0.6,0.2,1,0.6,1.4c0.4,0.4,0.9,0.6,1.4,0.8c0.6,0.2,1.3,0.4,2.3,0.6
		c1.3,0.3,2.3,0.6,3.1,0.9c0.8,0.3,1.4,0.8,2,1.4s0.8,1.5,0.8,2.5c0,0.9-0.2,1.7-0.7,2.4c-0.5,0.7-1.2,1.3-2.2,1.7
		c-1,0.4-2.2,0.6-3.6,0.6C792.1,635.9,790.8,635.7,789.7,635.3z"/>
	<linearGradient id="SVGID_15_" gradientUnits="userSpaceOnUse" x1="678.6002" y1="603.1996" x2="1058.8638" y2="672.6129">
		<stop  offset="0" style="stop-color:#F6883A"/>
		<stop  offset="0.5653" style="stop-color:#F37027"/>
		<stop  offset="0.9557" style="stop-color:#F68C42"/>
	</linearGradient>
	<path class="st16" d="M806.5,621h-5.8v-2.1h13.9v2.1h-5.8v14.8h-2.4V621z"/>
	<linearGradient id="SVGID_16_" gradientUnits="userSpaceOnUse" x1="679.3145" y1="599.287" x2="1059.578" y2="668.7003">
		<stop  offset="0" style="stop-color:#F6883A"/>
		<stop  offset="0.5653" style="stop-color:#F37027"/>
		<stop  offset="0.9557" style="stop-color:#F68C42"/>
	</linearGradient>
	<path class="st17" d="M839.4,635.7l0-12.3l-6.1,10.2h-1.1l-6.1-10.2v12.2h-2.3v-16.9h2l7,11.9l6.9-11.9h2l0,16.9H839.4z"/>
	<linearGradient id="SVGID_17_" gradientUnits="userSpaceOnUse" x1="679.8061" y1="596.5937" x2="1060.0696" y2="666.0069">
		<stop  offset="0" style="stop-color:#F6883A"/>
		<stop  offset="0.5653" style="stop-color:#F37027"/>
		<stop  offset="0.9557" style="stop-color:#F68C42"/>
	</linearGradient>
	<path class="st18" d="M846.8,618.9h2.4v16.9h-2.4V618.9z"/>
	<linearGradient id="SVGID_18_" gradientUnits="userSpaceOnUse" x1="680.0469" y1="595.2746" x2="1060.3104" y2="664.6878">
		<stop  offset="0" style="stop-color:#F6883A"/>
		<stop  offset="0.5653" style="stop-color:#F37027"/>
		<stop  offset="0.9557" style="stop-color:#F68C42"/>
	</linearGradient>
	<path class="st19" d="M854.2,618.9h2.4v14.8h9.1v2.1h-11.5V618.9z"/>
	<linearGradient id="SVGID_19_" gradientUnits="userSpaceOnUse" x1="680.6613" y1="591.9088" x2="1060.9248" y2="661.322">
		<stop  offset="0" style="stop-color:#F6883A"/>
		<stop  offset="0.5653" style="stop-color:#F37027"/>
		<stop  offset="0.9557" style="stop-color:#F68C42"/>
	</linearGradient>
	<path class="st20" d="M880.8,633.6v2.1h-12.2v-16.9h11.9v2.1H871v5.2h8.5v2H871v5.4H880.8z"/>
	<linearGradient id="SVGID_20_" gradientUnits="userSpaceOnUse" x1="681.3313" y1="588.2382" x2="1061.5948" y2="657.6513">
		<stop  offset="0" style="stop-color:#F6883A"/>
		<stop  offset="0.5653" style="stop-color:#F37027"/>
		<stop  offset="0.9557" style="stop-color:#F68C42"/>
	</linearGradient>
	<path class="st21" d="M891.2,618.9h7.1c1.8,0,3.4,0.4,4.7,1.1c1.4,0.7,2.5,1.7,3.2,3c0.8,1.3,1.1,2.7,1.1,4.4
		c0,1.7-0.4,3.1-1.1,4.4c-0.8,1.3-1.8,2.3-3.2,3c-1.4,0.7-3,1.1-4.7,1.1h-7.1V618.9z M898.1,633.6c1.4,0,2.6-0.3,3.6-0.8
		c1-0.5,1.8-1.3,2.4-2.2c0.6-1,0.8-2.1,0.8-3.3c0-1.3-0.3-2.4-0.8-3.3c-0.6-1-1.4-1.7-2.4-2.2c-1-0.5-2.2-0.8-3.6-0.8h-4.6v12.7
		H898.1z"/>
	<linearGradient id="SVGID_21_" gradientUnits="userSpaceOnUse" x1="682.0322" y1="584.3987" x2="1062.2957" y2="653.8118">
		<stop  offset="0" style="stop-color:#F6883A"/>
		<stop  offset="0.5653" style="stop-color:#F37027"/>
		<stop  offset="0.9557" style="stop-color:#F68C42"/>
	</linearGradient>
	<path class="st22" d="M923.3,633.6v2.1h-12.2v-16.9H923v2.1h-9.5v5.2h8.5v2h-8.5v5.4H923.3z"/>
	<linearGradient id="SVGID_22_" gradientUnits="userSpaceOnUse" x1="682.3995" y1="582.3861" x2="1062.6631" y2="651.7993">
		<stop  offset="0" style="stop-color:#F6883A"/>
		<stop  offset="0.5653" style="stop-color:#F37027"/>
		<stop  offset="0.9557" style="stop-color:#F68C42"/>
	</linearGradient>
	<path class="st23" d="M927.2,618.9h2.4v14.8h9.1v2.1h-11.5V618.9z"/>
	<linearGradient id="SVGID_23_" gradientUnits="userSpaceOnUse" x1="682.8609" y1="579.8585" x2="1063.1245" y2="649.2717">
		<stop  offset="0" style="stop-color:#F6883A"/>
		<stop  offset="0.5653" style="stop-color:#F37027"/>
		<stop  offset="0.9557" style="stop-color:#F68C42"/>
	</linearGradient>
	<path class="st24" d="M941.5,618.9h2.4v16.9h-2.4V618.9z"/>
	<linearGradient id="SVGID_24_" gradientUnits="userSpaceOnUse" x1="683.372" y1="577.0586" x2="1063.6356" y2="646.4718">
		<stop  offset="0" style="stop-color:#F6883A"/>
		<stop  offset="0.5653" style="stop-color:#F37027"/>
		<stop  offset="0.9557" style="stop-color:#F68C42"/>
	</linearGradient>
	<path class="st25" d="M963.4,618.9l-7.4,16.9h-2.4l-7.4-16.9h2.6l6.1,13.8l6.1-13.8H963.4z"/>
	<linearGradient id="SVGID_25_" gradientUnits="userSpaceOnUse" x1="683.7906" y1="574.7652" x2="1064.0542" y2="644.1783">
		<stop  offset="0" style="stop-color:#F6883A"/>
		<stop  offset="0.5653" style="stop-color:#F37027"/>
		<stop  offset="0.9557" style="stop-color:#F68C42"/>
	</linearGradient>
	<path class="st26" d="M977.8,633.6v2.1h-12.2v-16.9h11.9v2.1H968v5.2h8.5v2H968v5.4H977.8z"/>
	<linearGradient id="SVGID_26_" gradientUnits="userSpaceOnUse" x1="684.2426" y1="572.2892" x2="1064.5061" y2="641.7025">
		<stop  offset="0" style="stop-color:#F6883A"/>
		<stop  offset="0.5653" style="stop-color:#F37027"/>
		<stop  offset="0.9557" style="stop-color:#F68C42"/>
	</linearGradient>
	<path class="st27" d="M993,635.7l-3.6-5.2c-0.4,0-0.8,0-1.1,0h-4.2v5.1h-2.4v-16.9h6.6c2.2,0,3.9,0.5,5.2,1.6
		c1.3,1,1.9,2.5,1.9,4.3c0,1.3-0.3,2.4-1,3.3c-0.6,0.9-1.6,1.6-2.7,2l4,5.7H993z M991.7,627.6c0.8-0.7,1.2-1.6,1.2-2.8
		s-0.4-2.2-1.2-2.8c-0.8-0.7-2-1-3.5-1h-4.1v7.6h4.1C989.8,628.5,990.9,628.2,991.7,627.6z"/>
	<linearGradient id="SVGID_27_" gradientUnits="userSpaceOnUse" x1="684.9538" y1="568.3933" x2="1065.2173" y2="637.8065">
		<stop  offset="0" style="stop-color:#F6883A"/>
		<stop  offset="0.5653" style="stop-color:#F37027"/>
		<stop  offset="0.9557" style="stop-color:#F68C42"/>
	</linearGradient>
	<path class="st28" d="M1005.5,629.9v5.8h-2.4v-5.9l-6.7-11h2.6l5.4,8.9l5.4-8.9h2.4L1005.5,629.9z"/>
</g>
</svg>
